<svg width="189" height="60" viewBox="0 0 189 60" fill="none" xmlns="http://www.w3.org/2000/svg">
<rect width="189" height="59" transform="translate(0 0.246399)" fill="black"/>
<path d="M21.8281 22.6058C21.8281 25.1787 21.3333 27.3297 20.3438 29.0589C19.3646 30.7776 17.9427 32.0745 16.0781 32.9495C14.2135 33.8141 11.9688 34.2464 9.34375 34.2464H2.875V11.4026H10.0469C12.4427 11.4026 14.5208 11.8297 16.2812 12.6839C18.0417 13.5276 19.4062 14.7829 20.375 16.4495C21.3438 18.1058 21.8281 20.1579 21.8281 22.6058ZM16.7969 22.7308C16.7969 21.0433 16.5469 19.6579 16.0469 18.5745C15.5573 17.4808 14.8281 16.6735 13.8594 16.1526C12.901 15.6318 11.7135 15.3714 10.2969 15.3714H7.71875V30.2464H9.79688C12.1615 30.2464 13.9167 29.6162 15.0625 28.3558C16.2188 27.0954 16.7969 25.2204 16.7969 22.7308ZM33.3438 16.4183C35.6875 16.4183 37.4844 16.9287 38.7344 17.9495C39.9844 18.9704 40.6094 20.5224 40.6094 22.6058V34.2464H37.2812L36.3594 31.8714H36.2344C35.7344 32.4964 35.224 33.0068 34.7031 33.4026C34.1823 33.7985 33.5833 34.0901 32.9062 34.2776C32.2292 34.4651 31.4062 34.5589 30.4375 34.5589C29.4062 34.5589 28.4792 34.361 27.6562 33.9651C26.8438 33.5693 26.2031 32.9651 25.7344 32.1526C25.2656 31.3297 25.0312 30.2881 25.0312 29.0276C25.0312 27.1735 25.6823 25.8089 26.9844 24.9339C28.2865 24.0485 30.2396 23.5589 32.8438 23.4651L35.875 23.3714V22.6058C35.875 21.6891 35.6354 21.0172 35.1562 20.5901C34.6771 20.1631 34.0104 19.9495 33.1562 19.9495C32.3125 19.9495 31.4844 20.0693 30.6719 20.3089C29.8594 20.5485 29.0469 20.8506 28.2344 21.2151L26.6562 17.9964C27.5833 17.5068 28.6198 17.1214 29.7656 16.8401C30.9219 16.5589 32.1146 16.4183 33.3438 16.4183ZM35.875 26.1526L34.0312 26.2151C32.4896 26.2568 31.4167 26.5329 30.8125 27.0433C30.2188 27.5537 29.9219 28.2256 29.9219 29.0589C29.9219 29.7881 30.1354 30.3089 30.5625 30.6214C30.9896 30.9235 31.5469 31.0745 32.2344 31.0745C33.2552 31.0745 34.1146 30.7724 34.8125 30.1683C35.5208 29.5641 35.875 28.7047 35.875 27.5901V26.1526ZM49.6875 34.2464L43.0312 16.7776H48.0156L51.3906 26.7308C51.5781 27.3141 51.724 27.9287 51.8281 28.5745C51.9427 29.2204 52.0208 29.7985 52.0625 30.3089H52.1875C52.2188 29.7568 52.2917 29.1683 52.4062 28.5433C52.5312 27.9183 52.6927 27.3141 52.8906 26.7308L56.25 16.7776H61.2344L54.5781 34.2464H49.6875ZM68.5156 16.7776V34.2464H63.75V16.7776H68.5156ZM66.1406 9.9339C66.849 9.9339 67.4583 10.1006 67.9688 10.4339C68.4792 10.7568 68.7344 11.3662 68.7344 12.262C68.7344 13.1474 68.4792 13.762 67.9688 14.1058C67.4583 14.4391 66.849 14.6058 66.1406 14.6058C65.4219 14.6058 64.8073 14.4391 64.2969 14.1058C63.7969 13.762 63.5469 13.1474 63.5469 12.262C63.5469 11.3662 63.7969 10.7568 64.2969 10.4339C64.8073 10.1006 65.4219 9.9339 66.1406 9.9339ZM79.0625 34.5589C77.1146 34.5589 75.526 33.7985 74.2969 32.2776C73.0781 30.7464 72.4688 28.5016 72.4688 25.5433C72.4688 22.5537 73.0885 20.2933 74.3281 18.762C75.5677 17.2204 77.1875 16.4495 79.1875 16.4495C80.0208 16.4495 80.7552 16.5641 81.3906 16.7933C82.026 17.0224 82.5729 17.3297 83.0312 17.7151C83.5 18.1006 83.8958 18.5329 84.2188 19.012H84.375C84.3125 18.6787 84.2344 18.1891 84.1406 17.5433C84.0573 16.887 84.0156 16.2151 84.0156 15.5276V9.9339H88.7969V34.2464H85.1406L84.2188 31.9808H84.0156C83.7135 32.4599 83.3333 32.8974 82.875 33.2933C82.4271 33.6787 81.8906 33.986 81.2656 34.2151C80.6406 34.4443 79.9062 34.5589 79.0625 34.5589ZM80.7344 30.762C82.0365 30.762 82.9531 30.3766 83.4844 29.6058C84.026 28.8245 84.3125 27.6526 84.3438 26.0901V25.5745C84.3438 23.8766 84.0833 22.5797 83.5625 21.6839C83.0417 20.7776 82.0729 20.3245 80.6562 20.3245C79.6042 20.3245 78.7812 20.7776 78.1875 21.6839C77.5938 22.5901 77.2969 23.8974 77.2969 25.6058C77.2969 27.3141 77.5938 28.6006 78.1875 29.4651C78.7917 30.3297 79.6406 30.762 80.7344 30.762ZM100.078 40.9651C99.4531 40.9651 98.9062 40.9287 98.4375 40.8558C97.9583 40.7933 97.5521 40.7151 97.2188 40.6214V36.5901C97.5521 36.6631 97.9115 36.7308 98.2969 36.7933C98.6719 36.8662 99.0729 36.9026 99.5 36.9026C100.062 36.9026 100.568 36.7933 101.016 36.5745C101.464 36.3662 101.818 35.9651 102.078 35.3714C102.339 34.7776 102.469 33.9235 102.469 32.8089V11.4026H107.312V32.7776C107.312 34.736 107.005 36.3141 106.391 37.512C105.786 38.7204 104.938 39.5954 103.844 40.137C102.76 40.6891 101.505 40.9651 100.078 40.9651ZM119.891 16.4495C121.505 16.4495 122.896 16.762 124.062 17.387C125.229 18.0016 126.13 18.8974 126.766 20.0745C127.401 21.2516 127.719 22.6891 127.719 24.387V26.6995H116.453C116.505 28.0433 116.906 29.1006 117.656 29.8714C118.417 30.6318 119.469 31.012 120.812 31.012C121.927 31.012 122.948 30.8974 123.875 30.6683C124.802 30.4391 125.755 30.0954 126.734 29.637V33.3245C125.87 33.7516 124.964 34.0641 124.016 34.262C123.078 34.4599 121.938 34.5589 120.594 34.5589C118.844 34.5589 117.292 34.236 115.938 33.5901C114.594 32.9443 113.536 31.9599 112.766 30.637C112.005 29.3141 111.625 27.6474 111.625 25.637C111.625 23.5954 111.969 21.8974 112.656 20.5433C113.354 19.1787 114.323 18.1579 115.562 17.4808C116.802 16.7933 118.245 16.4495 119.891 16.4495ZM119.922 19.8401C118.995 19.8401 118.224 20.137 117.609 20.7308C117.005 21.3245 116.656 22.2568 116.562 23.5276H123.25C123.24 22.8193 123.109 22.1891 122.859 21.637C122.62 21.0849 122.255 20.6474 121.766 20.3245C121.286 20.0016 120.672 19.8401 119.922 19.8401ZM136.703 41.9339C134.266 41.9339 132.401 41.5068 131.109 40.6526C129.828 39.8089 129.188 38.6214 129.188 37.0901C129.188 36.0381 129.516 35.1579 130.172 34.4495C130.828 33.7412 131.792 33.236 133.062 32.9339C132.573 32.7256 132.146 32.387 131.781 31.9183C131.417 31.4391 131.234 30.9339 131.234 30.4026C131.234 29.736 131.427 29.1839 131.812 28.7464C132.198 28.2985 132.755 27.861 133.484 27.4339C132.568 27.0381 131.839 26.4026 131.297 25.5276C130.766 24.6526 130.5 23.6214 130.5 22.4339C130.5 21.1631 130.776 20.0849 131.328 19.1995C131.891 18.3037 132.703 17.6214 133.766 17.1526C134.839 16.6839 136.141 16.4495 137.672 16.4495C137.995 16.4495 138.37 16.4704 138.797 16.512C139.224 16.5537 139.615 16.6006 139.969 16.6526C140.333 16.7047 140.578 16.7464 140.703 16.7776H146.797V19.1995L144.062 19.9026C144.312 20.2881 144.5 20.6995 144.625 21.137C144.75 21.5745 144.812 22.0381 144.812 22.5276C144.812 24.4026 144.156 25.8662 142.844 26.9183C141.542 27.9599 139.729 28.4808 137.406 28.4808C136.854 28.4495 136.333 28.4079 135.844 28.3558C135.604 28.5433 135.422 28.7412 135.297 28.9495C135.172 29.1579 135.109 29.3766 135.109 29.6058C135.109 29.8349 135.203 30.0276 135.391 30.1839C135.589 30.3297 135.88 30.4443 136.266 30.5276C136.661 30.6006 137.151 30.637 137.734 30.637H140.703C142.62 30.637 144.078 31.0485 145.078 31.8714C146.089 32.6943 146.594 33.9026 146.594 35.4964C146.594 37.5381 145.74 39.1214 144.031 40.2464C142.333 41.3714 139.891 41.9339 136.703 41.9339ZM136.906 38.8245C138.042 38.8245 139.016 38.7151 139.828 38.4964C140.651 38.2881 141.281 37.986 141.719 37.5901C142.156 37.2047 142.375 36.7412 142.375 36.1995C142.375 35.762 142.245 35.4131 141.984 35.1526C141.734 34.9026 141.349 34.7256 140.828 34.6214C140.318 34.5172 139.661 34.4651 138.859 34.4651H136.391C135.807 34.4651 135.281 34.5589 134.812 34.7464C134.354 34.9339 133.99 35.1943 133.719 35.5276C133.448 35.8714 133.312 36.2672 133.312 36.7151C133.312 37.3714 133.625 37.887 134.25 38.262C134.885 38.637 135.771 38.8245 136.906 38.8245ZM137.672 25.5745C138.568 25.5745 139.224 25.2985 139.641 24.7464C140.057 24.1943 140.266 23.4443 140.266 22.4964C140.266 21.4443 140.047 20.6579 139.609 20.137C139.182 19.6058 138.536 19.3401 137.672 19.3401C136.797 19.3401 136.141 19.6058 135.703 20.137C135.266 20.6579 135.047 21.4443 135.047 22.4964C135.047 23.4443 135.26 24.1943 135.688 24.7464C136.125 25.2985 136.786 25.5745 137.672 25.5745ZM165.562 25.4808C165.562 26.9391 165.365 28.2308 164.969 29.3558C164.583 30.4808 164.016 31.4339 163.266 32.2151C162.526 32.986 161.63 33.5693 160.578 33.9651C159.536 34.361 158.359 34.5589 157.047 34.5589C155.818 34.5589 154.688 34.361 153.656 33.9651C152.635 33.5693 151.745 32.986 150.984 32.2151C150.234 31.4339 149.651 30.4808 149.234 29.3558C148.828 28.2308 148.625 26.9391 148.625 25.4808C148.625 23.5433 148.969 21.9026 149.656 20.5589C150.344 19.2151 151.323 18.1943 152.594 17.4964C153.865 16.7985 155.38 16.4495 157.141 16.4495C158.776 16.4495 160.224 16.7985 161.484 17.4964C162.755 18.1943 163.75 19.2151 164.469 20.5589C165.198 21.9026 165.562 23.5433 165.562 25.4808ZM153.484 25.4808C153.484 26.6266 153.609 27.5901 153.859 28.3714C154.109 29.1526 154.5 29.7412 155.031 30.137C155.562 30.5329 156.255 30.7308 157.109 30.7308C157.953 30.7308 158.635 30.5329 159.156 30.137C159.688 29.7412 160.073 29.1526 160.312 28.3714C160.562 27.5901 160.688 26.6266 160.688 25.4808C160.688 24.3245 160.562 23.3662 160.312 22.6058C160.073 21.8349 159.688 21.2568 159.156 20.8714C158.625 20.486 157.932 20.2933 157.078 20.2933C155.818 20.2933 154.901 20.7256 154.328 21.5901C153.766 22.4547 153.484 23.7516 153.484 25.4808ZM185.531 16.7776V34.2464H181.875L181.234 32.012H180.984C180.609 32.6058 180.141 33.0901 179.578 33.4651C179.016 33.8401 178.396 34.1162 177.719 34.2933C177.042 34.4704 176.339 34.5589 175.609 34.5589C174.359 34.5589 173.271 34.3401 172.344 33.9026C171.417 33.4547 170.693 32.762 170.172 31.8245C169.661 30.887 169.406 29.6683 169.406 28.1683V16.7776H174.172V26.9808C174.172 28.2308 174.396 29.1735 174.844 29.8089C175.292 30.4443 176.005 30.762 176.984 30.762C177.953 30.762 178.714 30.5433 179.266 30.1058C179.818 29.6579 180.203 29.0068 180.422 28.1526C180.651 27.2881 180.766 26.236 180.766 24.9964V16.7776H185.531Z" fill="white"/>
<path d="M31.368 56.2464V47.8464H34.512C35.224 47.8464 35.836 47.9624 36.348 48.1944C36.86 48.4184 37.252 48.7464 37.524 49.1784C37.804 49.6024 37.944 50.1184 37.944 50.7264C37.944 51.3184 37.804 51.8304 37.524 52.2624C37.252 52.6864 36.86 53.0144 36.348 53.2464C35.836 53.4784 35.224 53.5944 34.512 53.5944H31.86L32.256 53.1744V56.2464H31.368ZM32.256 53.2464L31.86 52.8144H34.488C35.328 52.8144 35.964 52.6344 36.396 52.2744C36.836 51.9064 37.056 51.3904 37.056 50.7264C37.056 50.0544 36.836 49.5344 36.396 49.1664C35.964 48.7984 35.328 48.6144 34.488 48.6144H31.86L32.256 48.1944V53.2464ZM39.5318 56.2464V49.9464H40.3478V51.6624L40.2638 51.3624C40.4398 50.8824 40.7358 50.5184 41.1518 50.2704C41.5678 50.0144 42.0838 49.8864 42.6998 49.8864V50.7144C42.6678 50.7144 42.6358 50.7144 42.6038 50.7144C42.5718 50.7064 42.5398 50.7024 42.5078 50.7024C41.8438 50.7024 41.3238 50.9064 40.9478 51.3144C40.5718 51.7144 40.3838 52.2864 40.3838 53.0304V56.2464H39.5318ZM47.7337 56.2464V54.8544L47.6977 54.6264V52.2984C47.6977 51.7624 47.5457 51.3504 47.2417 51.0624C46.9457 50.7744 46.5017 50.6304 45.9097 50.6304C45.5017 50.6304 45.1137 50.6984 44.7457 50.8344C44.3777 50.9704 44.0657 51.1504 43.8097 51.3744L43.4257 50.7384C43.7457 50.4664 44.1297 50.2584 44.5777 50.1144C45.0257 49.9624 45.4977 49.8864 45.9937 49.8864C46.8097 49.8864 47.4377 50.0904 47.8777 50.4984C48.3257 50.8984 48.5497 51.5104 48.5497 52.3344V56.2464H47.7337ZM45.5617 56.3064C45.0897 56.3064 44.6777 56.2304 44.3257 56.0784C43.9817 55.9184 43.7177 55.7024 43.5337 55.4304C43.3497 55.1504 43.2577 54.8304 43.2577 54.4704C43.2577 54.1424 43.3337 53.8464 43.4857 53.5824C43.6457 53.3104 43.9017 53.0944 44.2537 52.9344C44.6137 52.7664 45.0937 52.6824 45.6937 52.6824H47.8657V53.3184H45.7177C45.1097 53.3184 44.6857 53.4264 44.4457 53.6424C44.2137 53.8584 44.0977 54.1264 44.0977 54.4464C44.0977 54.8064 44.2377 55.0944 44.5177 55.3104C44.7977 55.5264 45.1897 55.6344 45.6937 55.6344C46.1737 55.6344 46.5857 55.5264 46.9297 55.3104C47.2817 55.0864 47.5377 54.7664 47.6977 54.3504L47.8897 54.9384C47.7297 55.3544 47.4497 55.6864 47.0497 55.9344C46.6577 56.1824 46.1617 56.3064 45.5617 56.3064ZM52.8558 56.3064C52.2638 56.3064 51.8078 56.1464 51.4878 55.8264C51.1678 55.5064 51.0078 55.0544 51.0078 54.4704V48.5544H51.8598V54.4224C51.8598 54.7904 51.9518 55.0744 52.1358 55.2744C52.3278 55.4744 52.5998 55.5744 52.9518 55.5744C53.3278 55.5744 53.6398 55.4664 53.8878 55.2504L54.1878 55.8624C54.0198 56.0144 53.8158 56.1264 53.5758 56.1984C53.3438 56.2704 53.1038 56.3064 52.8558 56.3064ZM49.8798 50.6544V49.9464H53.7798V50.6544H49.8798ZM55.7388 56.2464V49.9464H56.5908V56.2464H55.7388ZM56.1708 48.5544C55.9948 48.5544 55.8468 48.4944 55.7268 48.3744C55.6068 48.2544 55.5468 48.1104 55.5468 47.9424C55.5468 47.7744 55.6068 47.6344 55.7268 47.5224C55.8468 47.4024 55.9948 47.3424 56.1708 47.3424C56.3468 47.3424 56.4948 47.3984 56.6148 47.5104C56.7348 47.6224 56.7948 47.7624 56.7948 47.9304C56.7948 48.1064 56.7348 48.2544 56.6148 48.3744C56.5028 48.4944 56.3548 48.5544 56.1708 48.5544ZM61.5774 56.3064C60.9534 56.3064 60.3934 56.1704 59.8974 55.8984C59.4094 55.6184 59.0254 55.2384 58.7454 54.7584C58.4654 54.2704 58.3254 53.7144 58.3254 53.0904C58.3254 52.4584 58.4654 51.9024 58.7454 51.4224C59.0254 50.9424 59.4094 50.5664 59.8974 50.2944C60.3934 50.0224 60.9534 49.8864 61.5774 49.8864C62.1134 49.8864 62.5974 49.9904 63.0294 50.1984C63.4614 50.4064 63.8014 50.7184 64.0494 51.1344L63.4134 51.5664C63.1974 51.2464 62.9294 51.0104 62.6094 50.8584C62.2894 50.7064 61.9414 50.6304 61.5654 50.6304C61.1174 50.6304 60.7134 50.7344 60.3534 50.9424C59.9934 51.1424 59.7094 51.4264 59.5014 51.7944C59.2934 52.1624 59.1894 52.5944 59.1894 53.0904C59.1894 53.5864 59.2934 54.0184 59.5014 54.3864C59.7094 54.7544 59.9934 55.0424 60.3534 55.2504C60.7134 55.4504 61.1174 55.5504 61.5654 55.5504C61.9414 55.5504 62.2894 55.4744 62.6094 55.3224C62.9294 55.1704 63.1974 54.9384 63.4134 54.6264L64.0494 55.0584C63.8014 55.4664 63.4614 55.7784 63.0294 55.9944C62.5974 56.2024 62.1134 56.3064 61.5774 56.3064ZM65.6294 56.2464V49.9464H66.4814V56.2464H65.6294ZM66.0614 48.5544C65.8854 48.5544 65.7374 48.4944 65.6174 48.3744C65.4974 48.2544 65.4374 48.1104 65.4374 47.9424C65.4374 47.7744 65.4974 47.6344 65.6174 47.5224C65.7374 47.4024 65.8854 47.3424 66.0614 47.3424C66.2374 47.3424 66.3854 47.3984 66.5054 47.5104C66.6254 47.6224 66.6854 47.7624 66.6854 47.9304C66.6854 48.1064 66.6254 48.2544 66.5054 48.3744C66.3934 48.4944 66.2454 48.5544 66.0614 48.5544ZM71.5281 56.3064C70.8721 56.3064 70.2961 56.1704 69.8001 55.8984C69.3041 55.6184 68.9161 55.2384 68.6361 54.7584C68.3561 54.2704 68.2161 53.7144 68.2161 53.0904C68.2161 52.4664 68.3481 51.9144 68.6121 51.4344C68.8841 50.9544 69.2521 50.5784 69.7161 50.3064C70.1881 50.0264 70.7161 49.8864 71.3001 49.8864C71.8921 49.8864 72.4161 50.0224 72.8721 50.2944C73.3361 50.5584 73.7001 50.9344 73.9641 51.4224C74.2281 51.9024 74.3601 52.4584 74.3601 53.0904C74.3601 53.1304 74.3561 53.1744 74.3481 53.2224C74.3481 53.2624 74.3481 53.3064 74.3481 53.3544H68.8641V52.7184H73.8921L73.5561 52.9704C73.5561 52.5144 73.4561 52.1104 73.2561 51.7584C73.0641 51.3984 72.8001 51.1184 72.4641 50.9184C72.1281 50.7184 71.7401 50.6184 71.3001 50.6184C70.8681 50.6184 70.4801 50.7184 70.1361 50.9184C69.7921 51.1184 69.5241 51.3984 69.3321 51.7584C69.1401 52.1184 69.0441 52.5304 69.0441 52.9944V53.1264C69.0441 53.6064 69.1481 54.0304 69.3561 54.3984C69.5721 54.7584 69.8681 55.0424 70.2441 55.2504C70.6281 55.4504 71.0641 55.5504 71.5521 55.5504C71.9361 55.5504 72.2921 55.4824 72.6201 55.3464C72.9561 55.2104 73.2441 55.0024 73.4841 54.7224L73.9641 55.2744C73.6841 55.6104 73.3321 55.8664 72.9081 56.0424C72.4921 56.2184 72.0321 56.3064 71.5281 56.3064ZM79.3103 49.8864C79.8223 49.8864 80.2703 49.9864 80.6543 50.1864C81.0463 50.3784 81.3503 50.6744 81.5663 51.0744C81.7903 51.4744 81.9023 51.9784 81.9023 52.5864V56.2464H81.0503V52.6704C81.0503 52.0064 80.8823 51.5064 80.5463 51.1704C80.2183 50.8264 79.7543 50.6544 79.1543 50.6544C78.7063 50.6544 78.3143 50.7464 77.9783 50.9304C77.6503 51.1064 77.3943 51.3664 77.2103 51.7104C77.0343 52.0464 76.9463 52.4544 76.9463 52.9344V56.2464H76.0943V49.9464H76.9103V51.6744L76.7783 51.3504C76.9783 50.8944 77.2983 50.5384 77.7383 50.2824C78.1783 50.0184 78.7023 49.8864 79.3103 49.8864ZM90.0203 56.3064C89.3643 56.3064 88.7883 56.1704 88.2923 55.8984C87.7963 55.6184 87.4083 55.2384 87.1283 54.7584C86.8483 54.2704 86.7083 53.7144 86.7083 53.0904C86.7083 52.4664 86.8403 51.9144 87.1043 51.4344C87.3763 50.9544 87.7443 50.5784 88.2083 50.3064C88.6803 50.0264 89.2083 49.8864 89.7923 49.8864C90.3843 49.8864 90.9083 50.0224 91.3643 50.2944C91.8283 50.5584 92.1923 50.9344 92.4563 51.4224C92.7203 51.9024 92.8523 52.4584 92.8523 53.0904C92.8523 53.1304 92.8483 53.1744 92.8403 53.2224C92.8403 53.2624 92.8403 53.3064 92.8403 53.3544H87.3563V52.7184H92.3843L92.0483 52.9704C92.0483 52.5144 91.9483 52.1104 91.7483 51.7584C91.5563 51.3984 91.2923 51.1184 90.9563 50.9184C90.6203 50.7184 90.2323 50.6184 89.7923 50.6184C89.3603 50.6184 88.9723 50.7184 88.6283 50.9184C88.2843 51.1184 88.0163 51.3984 87.8243 51.7584C87.6323 52.1184 87.5363 52.5304 87.5363 52.9944V53.1264C87.5363 53.6064 87.6403 54.0304 87.8483 54.3984C88.0643 54.7584 88.3603 55.0424 88.7363 55.2504C89.1203 55.4504 89.5563 55.5504 90.0443 55.5504C90.4283 55.5504 90.7843 55.4824 91.1123 55.3464C91.4483 55.2104 91.7363 55.0024 91.9763 54.7224L92.4563 55.2744C92.1763 55.6104 91.8243 55.8664 91.4003 56.0424C90.9843 56.2184 90.5243 56.3064 90.0203 56.3064ZM97.8024 49.8864C98.3144 49.8864 98.7624 49.9864 99.1464 50.1864C99.5384 50.3784 99.8424 50.6744 100.058 51.0744C100.282 51.4744 100.394 51.9784 100.394 52.5864V56.2464H99.5424V52.6704C99.5424 52.0064 99.3744 51.5064 99.0384 51.1704C98.7104 50.8264 98.2464 50.6544 97.6464 50.6544C97.1984 50.6544 96.8064 50.7464 96.4704 50.9304C96.1424 51.1064 95.8864 51.3664 95.7024 51.7104C95.5264 52.0464 95.4384 52.4544 95.4384 52.9344V56.2464H94.5864V49.9464H95.4024V51.6744L95.2704 51.3504C95.4704 50.8944 95.7904 50.5384 96.2304 50.2824C96.6704 50.0184 97.1944 49.8864 97.8024 49.8864ZM108.512 56.3064C107.856 56.3064 107.28 56.1704 106.784 55.8984C106.288 55.6184 105.9 55.2384 105.62 54.7584C105.34 54.2704 105.2 53.7144 105.2 53.0904C105.2 52.4664 105.332 51.9144 105.596 51.4344C105.868 50.9544 106.236 50.5784 106.7 50.3064C107.172 50.0264 107.7 49.8864 108.284 49.8864C108.876 49.8864 109.4 50.0224 109.856 50.2944C110.32 50.5584 110.684 50.9344 110.948 51.4224C111.212 51.9024 111.344 52.4584 111.344 53.0904C111.344 53.1304 111.34 53.1744 111.332 53.2224C111.332 53.2624 111.332 53.3064 111.332 53.3544H105.848V52.7184H110.876L110.54 52.9704C110.54 52.5144 110.44 52.1104 110.24 51.7584C110.048 51.3984 109.784 51.1184 109.448 50.9184C109.112 50.7184 108.724 50.6184 108.284 50.6184C107.852 50.6184 107.464 50.7184 107.12 50.9184C106.776 51.1184 106.508 51.3984 106.316 51.7584C106.124 52.1184 106.028 52.5304 106.028 52.9944V53.1264C106.028 53.6064 106.132 54.0304 106.34 54.3984C106.556 54.7584 106.852 55.0424 107.228 55.2504C107.612 55.4504 108.048 55.5504 108.536 55.5504C108.92 55.5504 109.276 55.4824 109.604 55.3464C109.94 55.2104 110.228 55.0024 110.468 54.7224L110.948 55.2744C110.668 55.6104 110.316 55.8664 109.892 56.0424C109.476 56.2184 109.016 56.3064 108.512 56.3064ZM107.492 48.9624L109.136 47.4744H110.276L108.332 48.9624H107.492ZM115.071 56.3064C114.479 56.3064 114.023 56.1464 113.703 55.8264C113.383 55.5064 113.223 55.0544 113.223 54.4704V48.5544H114.075V54.4224C114.075 54.7904 114.167 55.0744 114.351 55.2744C114.543 55.4744 114.815 55.5744 115.167 55.5744C115.543 55.5744 115.855 55.4664 116.103 55.2504L116.403 55.8624C116.235 56.0144 116.031 56.1264 115.791 56.1984C115.559 56.2704 115.319 56.3064 115.071 56.3064ZM112.095 50.6544V49.9464H115.995V50.6544H112.095ZM117.954 56.2464V49.9464H118.806V56.2464H117.954ZM118.386 48.5544C118.21 48.5544 118.062 48.4944 117.942 48.3744C117.822 48.2544 117.762 48.1104 117.762 47.9424C117.762 47.7744 117.822 47.6344 117.942 47.5224C118.062 47.4024 118.21 47.3424 118.386 47.3424C118.562 47.3424 118.71 47.3984 118.83 47.5104C118.95 47.6224 119.01 47.7624 119.01 47.9304C119.01 48.1064 118.95 48.2544 118.83 48.3744C118.718 48.4944 118.57 48.5544 118.386 48.5544ZM123.744 56.3064C123.136 56.3064 122.588 56.1704 122.1 55.8984C121.62 55.6184 121.24 55.2384 120.96 54.7584C120.68 54.2704 120.54 53.7144 120.54 53.0904C120.54 52.4584 120.68 51.9024 120.96 51.4224C121.24 50.9424 121.62 50.5664 122.1 50.2944C122.58 50.0224 123.128 49.8864 123.744 49.8864C124.368 49.8864 124.92 50.0224 125.4 50.2944C125.888 50.5664 126.268 50.9424 126.54 51.4224C126.82 51.9024 126.96 52.4584 126.96 53.0904C126.96 53.7144 126.82 54.2704 126.54 54.7584C126.268 55.2384 125.888 55.6184 125.4 55.8984C124.912 56.1704 124.36 56.3064 123.744 56.3064ZM123.744 55.5504C124.2 55.5504 124.604 55.4504 124.956 55.2504C125.308 55.0424 125.584 54.7544 125.784 54.3864C125.992 54.0104 126.096 53.5784 126.096 53.0904C126.096 52.5944 125.992 52.1624 125.784 51.7944C125.584 51.4264 125.308 51.1424 124.956 50.9424C124.604 50.7344 124.204 50.6304 123.756 50.6304C123.308 50.6304 122.908 50.7344 122.556 50.9424C122.204 51.1424 121.924 51.4264 121.716 51.7944C121.508 52.1624 121.404 52.5944 121.404 53.0904C121.404 53.5784 121.508 54.0104 121.716 54.3864C121.924 54.7544 122.204 55.0424 122.556 55.2504C122.908 55.4504 123.304 55.5504 123.744 55.5504ZM136.572 49.8864C137.084 49.8864 137.528 49.9864 137.904 50.1864C138.288 50.3784 138.584 50.6744 138.792 51.0744C139.008 51.4744 139.116 51.9784 139.116 52.5864V56.2464H138.264V52.6704C138.264 52.0064 138.104 51.5064 137.784 51.1704C137.472 50.8264 137.028 50.6544 136.452 50.6544C136.02 50.6544 135.644 50.7464 135.324 50.9304C135.012 51.1064 134.768 51.3664 134.592 51.7104C134.424 52.0464 134.34 52.4544 134.34 52.9344V56.2464H133.488V52.6704C133.488 52.0064 133.328 51.5064 133.008 51.1704C132.688 50.8264 132.24 50.6544 131.664 50.6544C131.24 50.6544 130.868 50.7464 130.548 50.9304C130.228 51.1064 129.98 51.3664 129.804 51.7104C129.636 52.0464 129.552 52.4544 129.552 52.9344V56.2464H128.7V49.9464H129.516V51.6504L129.384 51.3504C129.576 50.8944 129.884 50.5384 130.308 50.2824C130.74 50.0184 131.248 49.8864 131.832 49.8864C132.448 49.8864 132.972 50.0424 133.404 50.3544C133.836 50.6584 134.116 51.1184 134.244 51.7344L133.908 51.6024C134.092 51.0904 134.416 50.6784 134.88 50.3664C135.352 50.0464 135.916 49.8864 136.572 49.8864ZM144.102 56.3064C143.446 56.3064 142.87 56.1704 142.374 55.8984C141.878 55.6184 141.49 55.2384 141.21 54.7584C140.93 54.2704 140.79 53.7144 140.79 53.0904C140.79 52.4664 140.922 51.9144 141.186 51.4344C141.458 50.9544 141.826 50.5784 142.29 50.3064C142.762 50.0264 143.29 49.8864 143.874 49.8864C144.466 49.8864 144.99 50.0224 145.446 50.2944C145.91 50.5584 146.274 50.9344 146.538 51.4224C146.802 51.9024 146.934 52.4584 146.934 53.0904C146.934 53.1304 146.93 53.1744 146.922 53.2224C146.922 53.2624 146.922 53.3064 146.922 53.3544H141.438V52.7184H146.466L146.13 52.9704C146.13 52.5144 146.03 52.1104 145.83 51.7584C145.638 51.3984 145.374 51.1184 145.038 50.9184C144.702 50.7184 144.314 50.6184 143.874 50.6184C143.442 50.6184 143.054 50.7184 142.71 50.9184C142.366 51.1184 142.098 51.3984 141.906 51.7584C141.714 52.1184 141.618 52.5304 141.618 52.9944V53.1264C141.618 53.6064 141.722 54.0304 141.93 54.3984C142.146 54.7584 142.442 55.0424 142.818 55.2504C143.202 55.4504 143.638 55.5504 144.126 55.5504C144.51 55.5504 144.866 55.4824 145.194 55.3464C145.53 55.2104 145.818 55.0024 146.058 54.7224L146.538 55.2744C146.258 55.6104 145.906 55.8664 145.482 56.0424C145.066 56.2184 144.606 56.3064 144.102 56.3064ZM143.082 48.9624L144.726 47.4744H145.866L143.922 48.9624H143.082ZM151.176 56.3064C150.576 56.3064 150.036 56.1704 149.556 55.8984C149.084 55.6264 148.712 55.2504 148.44 54.7704C148.168 54.2824 148.032 53.7224 148.032 53.0904C148.032 52.4504 148.168 51.8904 148.44 51.4104C148.712 50.9304 149.084 50.5584 149.556 50.2944C150.036 50.0224 150.576 49.8864 151.176 49.8864C151.728 49.8864 152.22 50.0104 152.652 50.2584C153.092 50.5064 153.44 50.8704 153.696 51.3504C153.96 51.8224 154.092 52.4024 154.092 53.0904C154.092 53.7704 153.964 54.3504 153.708 54.8304C153.452 55.3104 153.104 55.6784 152.664 55.9344C152.232 56.1824 151.736 56.3064 151.176 56.3064ZM151.236 55.5504C151.684 55.5504 152.084 55.4504 152.436 55.2504C152.796 55.0424 153.076 54.7544 153.276 54.3864C153.484 54.0104 153.588 53.5784 153.588 53.0904C153.588 52.5944 153.484 52.1624 153.276 51.7944C153.076 51.4264 152.796 51.1424 152.436 50.9424C152.084 50.7344 151.684 50.6304 151.236 50.6304C150.796 50.6304 150.4 50.7344 150.048 50.9424C149.696 51.1424 149.416 51.4264 149.208 51.7944C149 52.1624 148.896 52.5944 148.896 53.0904C148.896 53.5784 149 54.0104 149.208 54.3864C149.416 54.7544 149.696 55.0424 150.048 55.2504C150.4 55.4504 150.796 55.5504 151.236 55.5504ZM153.612 56.2464V54.3504L153.696 53.0784L153.576 51.8064V47.3424H154.428V56.2464H153.612ZM159.477 56.3064C158.821 56.3064 158.245 56.1704 157.749 55.8984C157.253 55.6184 156.865 55.2384 156.585 54.7584C156.305 54.2704 156.165 53.7144 156.165 53.0904C156.165 52.4664 156.297 51.9144 156.561 51.4344C156.833 50.9544 157.201 50.5784 157.665 50.3064C158.137 50.0264 158.665 49.8864 159.249 49.8864C159.841 49.8864 160.365 50.0224 160.821 50.2944C161.285 50.5584 161.649 50.9344 161.913 51.4224C162.177 51.9024 162.309 52.4584 162.309 53.0904C162.309 53.1304 162.305 53.1744 162.297 53.2224C162.297 53.2624 162.297 53.3064 162.297 53.3544H156.813V52.7184H161.841L161.505 52.9704C161.505 52.5144 161.405 52.1104 161.205 51.7584C161.013 51.3984 160.749 51.1184 160.413 50.9184C160.077 50.7184 159.689 50.6184 159.249 50.6184C158.817 50.6184 158.429 50.7184 158.085 50.9184C157.741 51.1184 157.473 51.3984 157.281 51.7584C157.089 52.1184 156.993 52.5304 156.993 52.9944V53.1264C156.993 53.6064 157.097 54.0304 157.305 54.3984C157.521 54.7584 157.817 55.0424 158.193 55.2504C158.577 55.4504 159.013 55.5504 159.501 55.5504C159.885 55.5504 160.241 55.4824 160.569 55.3464C160.905 55.2104 161.193 55.0024 161.433 54.7224L161.913 55.2744C161.633 55.6104 161.281 55.8664 160.857 56.0424C160.441 56.2184 159.981 56.3064 159.477 56.3064ZM166.659 56.3064C166.035 56.3064 165.475 56.1704 164.979 55.8984C164.491 55.6184 164.107 55.2384 163.827 54.7584C163.547 54.2704 163.407 53.7144 163.407 53.0904C163.407 52.4584 163.547 51.9024 163.827 51.4224C164.107 50.9424 164.491 50.5664 164.979 50.2944C165.475 50.0224 166.035 49.8864 166.659 49.8864C167.195 49.8864 167.679 49.9904 168.111 50.1984C168.543 50.4064 168.883 50.7184 169.131 51.1344L168.495 51.5664C168.279 51.2464 168.011 51.0104 167.691 50.8584C167.371 50.7064 167.023 50.6304 166.647 50.6304C166.199 50.6304 165.795 50.7344 165.435 50.9424C165.075 51.1424 164.791 51.4264 164.583 51.7944C164.375 52.1624 164.271 52.5944 164.271 53.0904C164.271 53.5864 164.375 54.0184 164.583 54.3864C164.791 54.7544 165.075 55.0424 165.435 55.2504C165.795 55.4504 166.199 55.5504 166.647 55.5504C167.023 55.5504 167.371 55.4744 167.691 55.3224C168.011 55.1704 168.279 54.9384 168.495 54.6264L169.131 55.0584C168.883 55.4664 168.543 55.7784 168.111 55.9944C167.679 56.2024 167.195 56.3064 166.659 56.3064ZM170.711 56.2464V49.9464H171.563V56.2464H170.711ZM171.143 48.5544C170.967 48.5544 170.819 48.4944 170.699 48.3744C170.579 48.2544 170.519 48.1104 170.519 47.9424C170.519 47.7744 170.579 47.6344 170.699 47.5224C170.819 47.4024 170.967 47.3424 171.143 47.3424C171.319 47.3424 171.467 47.3984 171.587 47.5104C171.707 47.6224 171.767 47.7624 171.767 47.9304C171.767 48.1064 171.707 48.2544 171.587 48.3744C171.475 48.4944 171.327 48.5544 171.143 48.5544ZM177.15 49.8864C177.662 49.8864 178.11 49.9864 178.494 50.1864C178.886 50.3784 179.19 50.6744 179.406 51.0744C179.63 51.4744 179.742 51.9784 179.742 52.5864V56.2464H178.89V52.6704C178.89 52.0064 178.722 51.5064 178.386 51.1704C178.058 50.8264 177.594 50.6544 176.994 50.6544C176.546 50.6544 176.154 50.7464 175.818 50.9304C175.49 51.1064 175.234 51.3664 175.05 51.7104C174.874 52.0464 174.786 52.4544 174.786 52.9344V56.2464H173.934V49.9464H174.75V51.6744L174.618 51.3504C174.818 50.8944 175.138 50.5384 175.578 50.2824C176.018 50.0184 176.542 49.8864 177.15 49.8864ZM184.719 56.3064C184.063 56.3064 183.487 56.1704 182.991 55.8984C182.495 55.6184 182.107 55.2384 181.827 54.7584C181.547 54.2704 181.407 53.7144 181.407 53.0904C181.407 52.4664 181.539 51.9144 181.803 51.4344C182.075 50.9544 182.443 50.5784 182.907 50.3064C183.379 50.0264 183.907 49.8864 184.491 49.8864C185.083 49.8864 185.607 50.0224 186.063 50.2944C186.527 50.5584 186.891 50.9344 187.155 51.4224C187.419 51.9024 187.551 52.4584 187.551 53.0904C187.551 53.1304 187.547 53.1744 187.539 53.2224C187.539 53.2624 187.539 53.3064 187.539 53.3544H182.055V52.7184H187.083L186.747 52.9704C186.747 52.5144 186.647 52.1104 186.447 51.7584C186.255 51.3984 185.991 51.1184 185.655 50.9184C185.319 50.7184 184.931 50.6184 184.491 50.6184C184.059 50.6184 183.671 50.7184 183.327 50.9184C182.983 51.1184 182.715 51.3984 182.523 51.7584C182.331 52.1184 182.235 52.5304 182.235 52.9944V53.1264C182.235 53.6064 182.339 54.0304 182.547 54.3984C182.763 54.7584 183.059 55.0424 183.435 55.2504C183.819 55.4504 184.255 55.5504 184.743 55.5504C185.127 55.5504 185.483 55.4824 185.811 55.3464C186.147 55.2104 186.435 55.0024 186.675 54.7224L187.155 55.2744C186.875 55.6104 186.523 55.8664 186.099 56.0424C185.683 56.2184 185.223 56.3064 184.719 56.3064Z" fill="white"/>
</svg>
